<svg width="40" height="46" viewBox="0 0 40 46" fill="none" xmlns="http://www.w3.org/2000/svg">
<path d="M32.2682 13.1142V16.9015H30.9149V13.532C30.9149 10.5167 29.6979 7.78287 27.7179 5.81201C25.7471 3.83201 23.0133 2.60591 19.9979 2.60591C13.9672 2.60591 9.08091 7.50132 9.08091 13.532V16.9015H7.72765V13.1142C7.72765 6.33875 13.2225 0.843933 19.9979 0.843933C23.3856 0.843933 26.4555 2.21538 28.6716 4.44057C30.8967 6.65666 32.2682 9.72651 32.2682 13.1142Z" fill="#D0D0F7"/>
<g opacity="0.3">
<path d="M10.0249 7.53164C9.97789 7.53164 9.92999 7.51967 9.88653 7.49395C9.75704 7.41723 9.71358 7.25004 9.79074 7.12054C9.96458 6.82607 10.1508 6.54003 10.3486 6.26242C10.4364 6.13869 10.6058 6.11119 10.7282 6.19856C10.8506 6.28548 10.8799 6.45577 10.7921 6.57861C10.6032 6.84337 10.4258 7.11699 10.2591 7.39816C10.2085 7.48419 10.118 7.53164 10.0249 7.53164Z" fill="white"/>
</g>
<path d="M24.277 25.4875V30.2541C24.277 32.6162 22.3621 34.5311 20 34.5311C17.6379 34.5311 15.723 32.6162 15.723 30.2541V25.4875H24.277Z" fill="#F7C9A9"/>
<path d="M24.2759 25.4935V30.259C24.2759 30.2989 24.2759 30.3518 24.263 30.3917C22.9485 30.989 21.5019 31.3341 19.9885 31.3341H19.8692C18.4226 31.3077 17.0284 31.0155 15.7405 30.458C15.7276 30.3917 15.7276 30.3253 15.7276 30.259V25.4935H24.2759Z" fill="#F0B68E"/>
<path d="M28.8985 9.68317V20.8009C28.8985 25.7567 24.8399 30.0699 19.8844 30.0087C17.4778 29.9781 15.2958 28.989 13.7152 27.4086C12.104 25.7975 11.1047 23.5745 11.1047 21.117V9.68317H28.8985Z" fill="#F7C9A9"/>
<path d="M21.209 22.5873C21.4053 22.9064 21.3554 23.3623 21.1093 23.6969C20.872 24.0442 20.4365 24.2543 20.0007 24.2598C19.5628 24.2567 19.1267 24.0454 18.8895 23.6978C18.6435 23.3629 18.594 22.9065 18.7914 22.5873C18.9868 22.9029 19.1964 23.0763 19.3999 23.1896C19.6086 23.2936 19.8022 23.3439 19.999 23.3373C20.198 23.3445 20.3923 23.2937 20.6014 23.19C20.8055 23.077 21.0147 22.9029 21.209 22.5873Z" fill="#E8AA80"/>
<path d="M17.1569 19.4174C17.1569 20.0525 16.6421 20.5714 16.007 20.5714C15.372 20.5714 14.8531 20.0525 14.8531 19.4174C14.8531 18.7822 15.372 18.2634 16.007 18.2634C16.6421 18.2634 17.1569 18.7822 17.1569 19.4174Z" fill="#474646"/>
<path d="M17.2706 17.7651H14.7394C14.554 17.7651 14.4036 17.6147 14.4036 17.4292C14.4036 17.2438 14.554 17.0934 14.7394 17.0934H17.2706C17.456 17.0934 17.6064 17.2438 17.6064 17.4292C17.6064 17.6147 17.456 17.7651 17.2706 17.7651Z" fill="#474646"/>
<path d="M25.1502 19.4174C25.1502 20.0525 24.6354 20.5714 24.0003 20.5714C23.3653 20.5714 22.8464 20.0525 22.8464 19.4174C22.8464 18.7822 23.3653 18.2634 24.0003 18.2634C24.6354 18.2634 25.1502 18.7822 25.1502 19.4174Z" fill="#474646"/>
<path d="M16.9623 18.7917C16.7886 18.6788 16.5802 18.6181 16.3544 18.6181C15.7204 18.6181 15.208 19.1304 15.208 19.7644C15.208 19.9989 15.2775 20.2074 15.3904 20.3898C15.069 20.1813 14.8519 19.8252 14.8519 19.4171C14.8519 18.7831 15.373 18.262 16.007 18.262C16.4065 18.262 16.7626 18.4704 16.9623 18.7917Z" fill="#2D2C2C"/>
<path d="M24.9698 18.8004C24.796 18.6875 24.5789 18.6181 24.3531 18.6181C23.7191 18.6181 23.1981 19.1304 23.1981 19.7644C23.1981 19.9989 23.2675 20.2074 23.3804 20.3898C23.0591 20.1813 22.8506 19.8252 22.8506 19.4171C22.8506 18.7831 23.3631 18.262 23.9971 18.262C24.4139 18.262 24.77 18.4791 24.9698 18.8004Z" fill="#2D2C2C"/>
<path d="M25.2639 17.7651H22.7327C22.5473 17.7651 22.3969 17.6147 22.3969 17.4292C22.3969 17.2438 22.5473 17.0934 22.7327 17.0934H25.2639C25.4493 17.0934 25.5997 17.2438 25.5997 17.4292C25.5997 17.6147 25.4493 17.7651 25.2639 17.7651Z" fill="#474646"/>
<path d="M13.1305 16.1181C15.1498 16.0897 19.486 15.5942 23.8441 12.3048C24.7093 11.6517 25.9446 12.1261 26.1408 13.1922C26.2975 14.0434 26.7087 14.9223 27.588 15.6476C27.8656 15.8765 28.074 16.2005 28.0965 16.5596C28.1579 17.5372 29.0046 18.0566 29.9677 16.8157C29.9677 16.8157 31.1164 9.73099 26.0212 6.00371C24.1234 4.61546 22.1759 4.09364 20.4789 3.98541C17.075 3.76834 13.6927 5.31543 11.6981 8.15939C10.4215 9.97944 9.82345 13.1139 10.3752 16.6626C10.8174 18.0597 11.4583 18.0111 11.7778 17.0523C11.9675 16.4827 12.5301 16.1265 13.1305 16.1181Z" fill="#474646"/>
<g opacity="0.3">
<path d="M14.6626 7.46946C14.5253 7.2764 14.5697 7.00881 14.7631 6.87103C15.0513 6.66541 15.3528 6.47696 15.6593 6.31071C15.8645 6.19932 16.1275 6.27428 16.2406 6.48325C16.3536 6.69138 16.2766 6.95143 16.068 7.0645C15.7925 7.21401 15.5211 7.38403 15.2606 7.56954C15.067 7.70723 14.7997 7.66131 14.6626 7.46946Z" fill="white"/>
<path d="M11.9984 12.2594C11.7656 12.2154 11.6123 11.9914 11.6558 11.7586C11.9901 9.97096 12.596 8.90323 13.6056 7.86647C13.7698 7.69603 14.0412 7.69226 14.212 7.85725C14.3821 8.02225 14.3854 8.29403 14.2204 8.46364C13.3514 9.36136 12.8082 10.2612 12.4984 11.9164C12.457 12.1384 12.2461 12.302 11.9984 12.2594Z" fill="white"/>
</g>
<path d="M39.1185 36.7951L39.8213 43.0918C39.9439 44.1904 39.084 45.1516 37.9785 45.1516H2.02146C0.915992 45.1516 0.0561136 44.1904 0.178731 43.0918L0.881495 36.7951C1.30259 33.0221 4.49236 30.1685 8.28876 30.1685H15.2576L19.9998 32.8165L24.5246 30.1685H26.1506H31.7112C35.5076 30.1685 38.6974 33.0221 39.1185 36.7951Z" fill="#474646"/>
<g opacity="0.3">
<path d="M3.85337 34.9259C3.69517 34.9259 3.53607 34.8754 3.4013 34.7713C3.07903 34.5216 3.02044 34.0578 3.27014 33.7351C4.48123 32.1725 6.31025 31.2764 8.28892 31.2764C8.69682 31.2764 9.0272 31.6068 9.0272 32.0147C9.0272 32.4226 8.69682 32.753 8.28892 32.753C6.77044 32.753 5.36689 33.4408 4.43751 34.6402C4.29192 34.8277 4.07378 34.9259 3.85337 34.9259Z" fill="white"/>
<path d="M2.7171 37.7384C2.68961 37.7384 2.66212 37.7366 2.63417 37.7334C2.22897 37.6884 1.93691 37.3228 1.98243 36.9176C2.02254 36.5584 2.09331 36.2019 2.19246 35.8575C2.30469 35.4654 2.71305 35.2396 3.10653 35.3527C3.4982 35.4654 3.72446 35.8747 3.61133 36.2668C3.53516 36.5309 3.48108 36.8054 3.44998 37.0817C3.40806 37.4594 3.08805 37.7384 2.7171 37.7384Z" fill="white"/>
</g>
<path d="M37.975 45.156H2.02119C1.05191 45.156 0.267206 44.4083 0.175034 43.4668C0.23036 43.476 0.285686 43.476 0.341124 43.476H36.3042C37.4119 43.476 38.2704 42.516 38.1411 41.4176L37.4396 35.1222C37.3011 33.8022 36.8027 32.5837 36.0642 31.5683C37.7257 32.7591 38.8796 34.6237 39.1196 36.7929L39.8211 43.0883C39.9411 44.1868 39.0827 45.156 37.975 45.156Z" fill="#2D2C2C"/>
<path d="M9.49633 13.9429L9.53542 21.9276C7.38761 21.9381 5.63795 20.2055 5.62743 18.0577L5.62642 17.8509C5.61591 15.703 7.34852 13.9534 9.49633 13.9429Z" fill="#FC6559"/>
<g opacity="0.3">
<path d="M6.53475 18.1648C6.36002 18.1648 6.21722 18.0234 6.21722 17.8482C6.21279 16.967 6.5516 16.1364 7.17069 15.5106C7.43678 15.2423 7.74189 15.0237 8.07893 14.861C8.23503 14.7847 8.4275 14.8499 8.50378 15.0086C8.58005 15.1665 8.51353 15.3568 8.35566 15.433C8.08425 15.5648 7.83768 15.7413 7.62304 15.9581C7.1228 16.4632 6.84962 17.1333 6.85228 17.8455C6.85316 18.0212 6.71214 18.164 6.53652 18.1648C6.53564 18.1648 6.53475 18.1648 6.53475 18.1648Z" fill="white"/>
</g>
<path d="M9.53453 21.9241H9.49822C7.74528 21.9241 6.25581 20.7524 5.7926 19.1358C6.41929 19.8079 7.25485 20.3528 7.89062 20.7161C8.29934 20.9523 8.79886 20.6616 8.79886 20.1893L8.76255 14.0133C8.99865 13.9679 9.24389 13.9407 9.49822 13.9407L9.53453 21.9241Z" fill="#F05543"/>
<path d="M9.40058 14.2807L9.43636 21.5891C9.43863 22.0513 9.81236 22.4215 10.2746 22.4192C10.7342 22.4169 11.107 22.0432 11.1047 21.5809L11.0689 14.2726C11.0667 13.813 10.6903 13.4402 10.2307 13.4425C9.99954 13.4436 9.79013 13.5376 9.6421 13.6898C9.49141 13.8419 9.39945 14.0496 9.40058 14.2807Z" fill="#E4E3FF"/>
<path d="M11.1058 21.579C11.1058 21.9695 10.8424 22.2874 10.4882 22.3873C10.5063 22.3237 10.5154 22.242 10.5154 22.1693L10.4882 14.858C10.4791 14.3948 10.1067 14.0224 9.64351 14.0315C9.57083 14.0315 9.49821 14.0406 9.43463 14.0678C9.46185 13.9226 9.53452 13.7954 9.64351 13.6864C9.7888 13.5411 9.99773 13.4412 10.2339 13.4412C10.688 13.4412 11.0694 13.8136 11.0694 14.2767L11.1058 21.579Z" fill="#D0D0F7"/>
<path d="M29.1724 27.4854H21.0639C20.6878 27.4854 20.3827 27.1802 20.3827 26.8042C20.3827 26.4281 20.6878 26.123 21.0639 26.123H29.1724C30.0096 26.123 30.6908 25.4418 30.6908 24.605V21.3681C30.6908 20.992 30.9959 20.6869 31.372 20.6869C31.7481 20.6869 32.0532 20.992 32.0532 21.3681V24.605C32.0532 26.1931 30.7609 27.4854 29.1724 27.4854Z" fill="#474646"/>
<path d="M22.4023 26.7287C22.4023 27.721 21.348 28.5284 20.0328 28.5284C18.7285 28.5284 17.6742 27.721 17.6742 26.7287C17.6742 25.7364 18.7285 24.929 20.0328 24.929C21.348 24.929 22.4023 25.7364 22.4023 26.7287Z" fill="#474646"/>
<path d="M22.4042 26.7286C22.4042 27.7186 21.3507 28.5269 20.0337 28.5269C19.0892 28.5269 18.2808 28.1092 17.8994 27.5006C18.3172 27.764 18.853 27.9275 19.4343 27.9275C20.7512 27.9275 21.8048 27.1192 21.8048 26.1292C21.8048 25.8477 21.723 25.5842 21.5777 25.3572C22.0864 25.6932 22.4042 26.1837 22.4042 26.7286Z" fill="#2D2C2C"/>
<path d="M30.4995 13.9429L30.4604 21.9276C32.6082 21.9381 34.3579 20.2055 34.3684 18.0577L34.3694 17.8509C34.3799 15.703 32.6473 13.9534 30.4995 13.9429Z" fill="#FC6559"/>
<path d="M34.3657 17.8552V18.055C34.3566 20.1985 32.6219 21.9241 30.4966 21.9241H30.4603V21.3882C32.3676 21.1612 33.857 19.5264 33.8661 17.5555V17.3466C33.8661 16.393 33.5301 15.512 32.9579 14.8308C33.8298 15.5483 34.3747 16.6382 34.3657 17.8552Z" fill="#F05543"/>
<path d="M30.5953 14.2807L30.5595 21.5891C30.5572 22.0513 30.1835 22.4215 29.7212 22.4192C29.2616 22.4169 28.8889 22.0432 28.8911 21.5809L28.9269 14.2726C28.9292 13.813 29.3056 13.4402 29.7652 13.4425C29.9963 13.4436 30.2057 13.5376 30.3537 13.6898C30.5044 13.8419 30.5964 14.0496 30.5953 14.2807Z" fill="#E4E3FF"/>
<path d="M30.5692 14.086C30.5147 14.0769 30.4512 14.0678 30.3876 14.0678C29.9335 14.0678 29.552 14.4403 29.552 14.8944L29.5157 22.2057C29.5157 22.2692 29.5248 22.3419 29.5429 22.4054C29.1706 22.3146 28.889 21.9786 28.889 21.579L28.9253 14.2767C28.9253 13.8136 29.3068 13.4412 29.761 13.4412C29.997 13.4412 30.206 13.5411 30.3513 13.6864C30.4603 13.7954 30.542 13.9316 30.5692 14.086Z" fill="#D0D0F7"/>
<path d="M21.6864 45.1542L20.9674 37.1091H19.0279L18.287 45.1542H21.6864Z" fill="#F9B938"/>
<path d="M21.6848 45.1542L20.9686 37.1094H20.2252L20.946 45.1542H21.6848Z" fill="#ECB021"/>
<path d="M18.4389 43.5053L18.287 45.1542H21.6864L21.539 43.5053H18.4389Z" fill="#E5A320"/>
<path d="M23.3778 34.7049L20.6296 37.4616C20.2828 37.8094 19.7197 37.8099 19.3724 37.4626L16.615 34.7049L18.6414 32.6782L21.539 32.8604L23.3778 34.7049Z" fill="#F9B938"/>
<path d="M23.3882 34.6988L20.624 37.4633C20.2935 37.8238 19.7226 37.8238 19.362 37.4633L18.8511 36.9523C19.2116 37.283 19.7825 37.283 20.1132 36.9523L22.8775 34.188L23.3882 34.6988Z" fill="#ECB021"/>
<g opacity="0.3">
<path d="M19.8944 39.6755L19.8753 39.9597C19.8618 40.1383 19.7062 40.2721 19.5276 40.2587C19.3491 40.2452 19.2152 40.0895 19.2287 39.911L19.2478 39.6268C19.2612 39.4482 19.4169 39.3144 19.5955 39.3278C19.774 39.3413 19.9079 39.497 19.8944 39.6755Z" fill="white"/>
</g>
<g opacity="0.3">
<path d="M19.8086 40.8452L19.7051 42.4978C19.6917 42.6763 19.536 42.8102 19.3575 42.7968C19.1789 42.7833 19.0451 42.6276 19.0585 42.4491L19.1619 40.7965C19.1754 40.6179 19.3311 40.4841 19.5096 40.4975C19.6882 40.511 19.822 40.6666 19.8086 40.8452Z" fill="white"/>
</g>
<path d="M13.8331 30.1377L16.5931 35.526C16.7709 35.8731 17.2367 35.9433 17.5089 35.6641L19.9998 32.7245L15.7362 30.0735L13.8331 30.1377Z" fill="#E4E3FF"/>
<path d="M26.1665 30.1377L23.4064 35.526C23.2286 35.8731 22.7628 35.9433 22.4906 35.6641L19.9998 32.7245L24.2633 30.0735L26.1665 30.1377Z" fill="#E4E3FF"/>
</svg>
