<svg width="145" height="198" viewBox="0 0 145 198" fill="none" xmlns="http://www.w3.org/2000/svg">
<g clip-path="url(#clip0_17_5)">
<path d="M66.5194 51.08L125.942 28.1828C135.398 24.5391 145.926 24.8322 155.21 28.9975C164.495 33.1629 171.774 40.8592 175.448 50.3935L198.535 110.309C205.27 127.788 204.843 147.206 197.348 164.289C189.852 181.372 175.902 194.722 158.566 201.402C141.23 208.082 121.928 207.545 104.907 199.909C87.8865 192.272 74.5403 178.162 67.805 160.683L44.718 100.767C41.0441 91.2332 41.2771 80.642 45.3657 71.3237C49.4543 62.0055 57.0635 54.7236 66.5194 51.08Z" fill="#64ABE6"/>
<path d="M161.508 200.183C178.014 192.937 191.073 179.553 197.969 162.814C204.866 146.075 205.068 127.269 198.535 110.309L178.911 59.3808C175.237 49.8465 167.958 42.1502 158.673 37.9848C149.389 33.8195 138.861 33.5264 129.405 37.17L69.9824 60.0673C62.1025 63.1037 55.7615 69.1719 52.3543 76.9371C48.9472 84.7023 48.753 93.5283 51.8146 101.474L73.7472 158.393C80.284 175.352 93.0531 189.159 109.399 196.943C125.744 204.726 144.408 205.886 161.508 200.183Z" fill="#439CDA"/>
<path d="M126.077 205.643C137.102 206.836 148.236 205.383 158.566 201.403C168.896 197.422 178.126 191.028 185.5 182.746L177.888 162.992C177.276 161.403 176.062 160.12 174.515 159.426C172.968 158.732 171.213 158.683 169.637 159.29L122.099 177.608C120.523 178.215 119.255 179.429 118.573 180.982C117.892 182.535 117.853 184.3 118.465 185.889L126.077 205.643Z" fill="#484B8E"/>
<path d="M170.982 83.0797L161.747 59.1136C156.646 45.8775 141.87 39.2481 128.743 44.3064L75.2623 64.914C62.135 69.9723 55.6277 84.8028 60.728 98.0389L69.9628 122.005C75.063 135.241 89.8394 141.871 102.967 136.812L156.447 116.205C169.575 111.146 176.082 96.3158 170.982 83.0797Z" fill="#D7EBFF"/>
<path d="M136.994 48.0082L83.5133 68.6158C77.2093 71.0449 72.1365 75.8994 69.4108 82.1116C66.6851 88.3237 66.5298 95.3846 68.979 101.741L78.2138 125.707C80.0951 130.6 83.4232 134.801 87.747 137.74C92.8033 139.009 98.1167 138.685 102.967 136.812L156.447 116.205C162.751 113.776 167.824 108.921 170.55 102.709C173.275 96.4967 173.431 89.4359 170.982 83.0797L161.747 59.1136C159.865 54.2207 156.537 50.0199 152.214 47.0809C147.157 45.8115 141.844 46.1353 136.994 48.0082Z" fill="#F7FBFF"/>
<path d="M126.726 158.622C130.008 157.358 131.635 153.65 130.36 150.341C129.085 147.032 125.39 145.375 122.109 146.639C118.827 147.904 117.2 151.611 118.475 154.92C119.75 158.229 123.444 159.887 126.726 158.622Z" fill="#FC69AA"/>
<path d="M153.466 148.318C156.748 147.054 158.375 143.346 157.1 140.037C155.825 136.728 152.131 135.071 148.849 136.335C145.567 137.6 143.94 141.308 145.215 144.617C146.49 147.926 150.184 149.583 153.466 148.318Z" fill="#FC69AA"/>
<path d="M92.2267 175.356C91.4387 175.66 90.5613 175.636 89.7877 175.288C89.014 174.941 88.4073 174.3 88.1012 173.505L83.4838 161.522C83.1776 160.728 83.1971 159.845 83.5378 159.069C83.8785 158.292 84.5126 157.685 85.3006 157.382C86.0886 157.078 86.9659 157.103 87.7396 157.45C88.5133 157.797 89.1199 158.438 89.4261 159.233L94.0435 171.216C94.3496 172.01 94.3302 172.893 93.9895 173.669C93.6488 174.446 93.0147 175.053 92.2267 175.356Z" fill="#2287BF"/>
<path d="M107.082 169.632C106.294 169.936 105.417 169.911 104.643 169.564C103.87 169.217 103.263 168.576 102.957 167.781L98.3395 155.798C98.0333 155.004 98.0527 154.121 98.3934 153.344C98.7342 152.568 99.3683 151.961 100.156 151.657C100.944 151.354 101.822 151.378 102.595 151.725C103.369 152.072 103.976 152.714 104.282 153.508L108.899 165.491C109.205 166.286 109.186 167.169 108.845 167.945C108.504 168.722 107.87 169.328 107.082 169.632Z" fill="#2287BF"/>
<path d="M123.935 111.53C125.576 110.897 126.39 109.044 125.752 107.389C125.114 105.735 123.267 104.906 121.627 105.538C119.986 106.17 119.172 108.024 119.81 109.679C120.447 111.333 122.294 112.162 123.935 111.53Z" fill="#484B8E"/>
<path d="M94.2337 92.0094C92.7143 92.5912 91.3068 93.4315 90.0725 94.4936L86.3139 84.7394L98.1985 80.16C98.9864 79.8563 99.6206 79.2495 99.9613 78.473C100.302 77.6965 100.321 76.8139 100.015 76.0193C99.7091 75.2248 99.1024 74.5835 98.3288 74.2363C97.5551 73.8892 96.6777 73.8648 95.8898 74.1685L81.0341 79.8928C80.2461 80.1964 79.612 80.8032 79.2712 81.5797C78.9305 82.3563 78.9111 83.2389 79.2173 84.0334L86.208 102.176C86.437 102.772 86.8369 103.286 87.3567 103.654C87.8765 104.021 88.4925 104.225 89.1261 104.24C89.7598 104.254 90.3822 104.078 90.914 103.734C91.4457 103.39 91.8627 102.894 92.1116 102.309C92.7317 100.845 93.7725 99.6032 95.1011 98.7415C96.4297 97.8797 97.9857 97.4376 99.5703 97.4715C101.155 97.5054 102.696 98.0138 103.997 98.9318C105.298 99.8499 106.299 101.136 106.873 102.625C107.447 104.115 107.567 105.74 107.219 107.293C106.87 108.847 106.069 110.258 104.917 111.346C103.765 112.435 102.314 113.151 100.751 113.404C99.1876 113.656 97.5823 113.434 96.1402 112.765C95.3698 112.409 94.4921 112.375 93.7005 112.671C92.9088 112.966 92.2679 113.566 91.9188 114.34C91.5697 115.113 91.5409 115.996 91.8389 116.794C92.1369 117.592 92.7371 118.24 93.5076 118.596C95.6621 119.592 98.025 120.037 100.386 119.893C102.747 119.748 105.032 119.018 107.038 117.768C109.045 116.517 110.71 114.785 111.885 112.725C113.06 110.666 113.709 108.343 113.774 105.964C113.839 103.584 113.318 101.223 112.257 99.0889C111.197 96.9551 109.629 95.1155 107.695 93.7341C105.76 92.3527 103.519 91.4723 101.17 91.1714C98.8215 90.8704 96.4386 91.1583 94.2337 92.0094Z" fill="#484B8E"/>
<path d="M131.373 77.6986C129.261 78.5377 127.445 79.9866 126.153 81.8637L124.853 78.4905C123.998 76.7733 123.839 74.7923 124.409 72.967C124.98 71.1418 126.235 69.6155 127.91 68.7113C129.131 68.3356 130.437 68.3328 131.664 68.7033C132.891 69.0737 133.983 69.8009 134.803 70.7929C135.388 71.3947 136.183 71.743 137.017 71.763C137.852 71.7829 138.659 71.473 139.265 70.8997C139.871 70.3265 140.229 69.5355 140.261 68.6968C140.292 67.8581 139.996 67.0384 139.435 66.4138C137.749 64.4839 135.532 63.1013 133.067 62.4432C130.603 61.785 128.003 61.8814 125.601 62.7198C122.34 64.2219 119.808 66.9622 118.555 70.3444C117.302 73.7266 117.43 77.4772 118.911 80.7802L124.683 95.759C125.801 99.2018 128.223 102.069 131.421 103.736C134.62 105.403 138.336 105.735 141.762 104.66C145.023 103.158 147.555 100.418 148.808 97.0359C150.061 93.6537 149.933 89.9031 148.452 86.6001C147.334 83.1573 144.912 80.2906 141.713 78.6236C138.515 76.9566 134.799 76.6241 131.373 77.6986ZM139.453 98.669C137.605 99.1222 135.65 98.833 134.002 97.8625C132.355 96.8919 131.143 95.3163 130.625 93.4693C129.77 91.7521 129.611 89.7711 130.181 87.9459C130.752 86.1206 132.007 84.5943 133.682 83.6901C135.53 83.2369 137.485 83.5261 139.133 84.4966C140.78 85.4672 141.992 87.0428 142.51 88.8898C143.365 90.607 143.524 92.588 142.954 94.4133C142.383 96.2385 141.128 97.7648 139.453 98.669Z" fill="#484B8E"/>
<path d="M131.012 174.173L160.724 162.725L182.656 219.644L152.945 231.093L131.012 174.173Z" fill="#FFEB89"/>
<path d="M136.954 171.884L160.724 162.725L182.656 219.644L158.887 228.803L136.954 171.884Z" fill="#FFDE58"/>
<path d="M136.784 189.152L166.495 177.704L173.421 195.678L143.71 207.127L136.784 189.152Z" fill="#FD87BE"/>
<path d="M142.726 186.863L166.495 177.704L173.421 195.678L149.652 204.837L142.726 186.863Z" fill="#FC69AA"/>
</g>
<defs>
<clipPath id="clip0_17_5">
<rect width="203.781" height="205.47" fill="white" transform="translate(0 73.2712) rotate(-21.0731)"/>
</clipPath>
</defs>
</svg>
